<svg id="visual" viewBox="0 0 900 600" width="900" height="600" xmlns="http://www.w3.org/2000/svg" xmlns:xlink="http://www.w3.org/1999/xlink" version="1.1"><path d="M881 600L873.5 550C866 500 851 400 845 300C839 200 842 100 843.5 50L845 0L900 0L900 50C900 100 900 200 900 300C900 400 900 500 900 550L900 600Z" fill="#e82b2b"></path><path d="M854 600L845 550C836 500 818 400 812 300C806 200 812 100 815 50L818 0L846 0L844.5 50C843 100 840 200 846 300C852 400 867 500 874.5 550L882 600Z" fill="#f56858"></path><path d="M800 600L791 550C782 500 764 400 756.5 300C749 200 752 100 753.5 50L755 0L819 0L816 50C813 100 807 200 813 300C819 400 837 500 846 550L855 600Z" fill="#fe9786"></path><path d="M737 600L720.5 550C704 500 671 400 657.5 300C644 200 650 100 653 50L656 0L756 0L754.5 50C753 100 750 200 757.5 300C765 400 783 500 792 550L801 600Z" fill="#ffc3b7"></path><path d="M395 600L395 550C395 500 395 400 408.5 300C422 200 449 100 462.5 50L476 0L657 0L654 50C651 100 645 200 658.5 300C672 400 705 500 721.5 550L738 600Z" fill="#ffeeea"></path><path d="M341 600L345.5 550C350 500 359 400 366.5 300C374 200 380 100 383 50L386 0L477 0L463.5 50C450 100 423 200 409.5 300C396 400 396 500 396 550L396 600Z" fill="#ffffff"></path><path d="M314 600L320 550C326 500 338 400 348.5 300C359 200 368 100 372.5 50L377 0L387 0L384 50C381 100 375 200 367.5 300C360 400 351 500 346.5 550L342 600Z" fill="#ffffff"></path><path d="M215 600L224 550C233 500 251 400 263 300C275 200 281 100 284 50L287 0L378 0L373.5 50C369 100 360 200 349.5 300C339 400 327 500 321 550L315 600Z" fill="#ffeeea"></path><path d="M206 600L215 550C224 500 242 400 252.5 300C263 200 266 100 267.5 50L269 0L288 0L285 50C282 100 276 200 264 300C252 400 234 500 225 550L216 600Z" fill="#ffc3b7"></path><path d="M107 600L105.5 550C104 500 101 400 105.5 300C110 200 122 100 128 50L134 0L270 0L268.5 50C267 100 264 200 253.5 300C243 400 225 500 216 550L207 600Z" fill="#fe9786"></path><path d="M35 600L36.5 550C38 500 41 400 44 300C47 200 50 100 51.5 50L53 0L135 0L129 50C123 100 111 200 106.5 300C102 400 105 500 106.5 550L108 600Z" fill="#f56858"></path><path d="M0 600L0 550C0 500 0 400 0 300C0 200 0 100 0 50L0 0L54 0L52.5 50C51 100 48 200 45 300C42 400 39 500 37.5 550L36 600Z" fill="#e82b2b"></path></svg>