<svg width="800" height="77" xmlns="http://www.w3.org/2000/svg" version="1.1">
 <g id="Layer_1">
  <title>Layer 1</title>
  <g>
   <path stroke="#000" stroke-linecap="round" fill="#ffffff" d="m-50,45.6698l21.5,4.7c21.5,4.6 64.5,14 107.3,15c42.9,1 85.5,-6.4 128.4,-6.9c42.8,-0.5 85.8,5.9 128.6,8c42.9,2.2 85.5,0.2 128.4,-0.5c42.8,-0.6 85.8,0 128.6,3.4c42.9,3.3 85.5,9.3 128.4,6c42.8,-3.4 85.8,-16 107.3,-22.4l21.5,-6.3l0,-47l-21.5,0c-21.5,0 -64.5,0 -107.3,0c-42.9,0 -85.5,0 -128.4,0c-42.8,0 -85.8,0 -128.6,0c-42.9,0 -85.5,0 -128.4,0c-42.8,0 -85.8,0 -128.6,0c-42.9,0 -85.5,0 -128.4,0c-42.8,0 -85.8,0 -107.3,0l-21.5,0l0,46z"/>
  </g>
 </g>

</svg>