<svg width="900" height="100" xmlns="http://www.w3.org/2000/svg" version="1.1">
 <g>
  <title>Layer 1</title>
  <path stroke-width="1.1" stroke="#000000" d="m0,75l21.5,-2c21.5,-2 64.5,-6 107.3,-3.5c42.9,2.5 85.5,11.5 128.4,16.3c42.8,4.9 85.8,5.5 128.6,0.7c42.9,-4.8 85.5,-15.2 128.4,-14c42.8,1.2 85.8,13.8 128.6,14.7c42.9,0.8 85.5,-10.2 128.4,-12.4c42.8,-2.1 85.8,4.5 107.3,7.9l21.5,3.3l0,-86l-21.5,0c-21.5,0 -64.5,0 -107.3,0c-42.9,0 -85.5,0 -128.4,0c-42.8,0 -85.8,0 -128.6,0c-42.9,0 -85.5,0 -128.4,0c-42.8,0 -85.8,0 -128.6,0c-42.9,0 -85.5,0 -128.4,0c-42.8,0 -85.8,0 -107.3,0l-21.5,0l0,75z" fill="#ffffff" stroke-linecap="round" id="svg_1"/>
 </g>

</svg>